<svg width="66" height="76" viewBox="0 0 66 76" fill="none" xmlns="http://www.w3.org/2000/svg">
<g filter="url(#filter0_d_2_6)">
<rect x="0.0078125" width="59.4574" height="58.9024" rx="11" fill="#6B91AC"/>
</g>
<g filter="url(#filter1_d_2_6)">
<path d="M11.0499 58.9024C17.463 72.065 21.6673 72.6634 28.0377 58.9024H11.0499Z" fill="#6B91AC"/>
</g>
<g clip-path="url(#clip0_2_6)">
<path d="M32.4015 32.4896C32.4352 32.8679 32.454 33.2448 32.4671 33.6238C32.4759 33.8502 32.4897 34.0764 32.5035 34.3027C32.5337 34.8007 32.5505 35.2967 32.5522 35.7951C32.5563 36.0002 32.571 36.2019 32.5896 36.4065C32.6211 36.7636 32.6288 37.1184 32.6305 37.4759C32.6322 37.8265 32.6391 38.1741 32.6712 38.5241C32.7124 38.9732 32.7119 39.4201 32.7117 39.8696C32.7144 40.1144 32.7303 40.3564 32.7508 40.6008C32.8967 42.3589 32.9226 44.0236 31.7383 45.4333C30.6057 46.7031 29.2216 47.4642 27.4668 47.5526C26.0416 47.5444 24.7742 47.0552 23.7165 46.0922C22.7775 45.129 22.0985 43.9325 21.4086 42.7907C20.6616 41.5549 19.9057 40.448 18.8843 39.4145C18.8239 39.353 18.7635 39.2914 18.7013 39.228C17.7601 38.3052 16.6422 37.6445 15.5033 36.9973C13.2172 35.6981 13.2172 35.6981 12.3064 34.7698C12.2592 34.7221 12.212 34.6744 12.1634 34.6253C11.1695 33.5868 10.6813 32.3582 10.639 30.9387C10.7365 29.1259 11.4952 27.7402 12.8278 26.5635C13.7559 25.7977 14.8618 25.5584 16.0556 25.5637C16.1295 25.5638 16.2033 25.5638 16.2794 25.5639C17.0749 25.5656 17.8659 25.5704 18.6604 25.6377C18.9154 25.657 19.1687 25.6593 19.424 25.6588C19.7566 25.6606 20.0842 25.6685 20.4161 25.6984C20.7712 25.7301 21.1239 25.7372 21.4795 25.7389C21.9036 25.7409 22.322 25.7594 22.7452 25.7976C23.009 25.8155 23.271 25.8175 23.535 25.819C23.9455 25.8215 24.3503 25.8369 24.7598 25.8743C24.8943 25.886 25.029 25.8948 25.1637 25.9006C28.723 26.0751 31.8795 29.0038 32.4015 32.4896Z" fill="#DCE3EB"/>
<path d="M45.8893 24.2619C45.9949 25.8028 45.2234 27.3327 44.2832 28.491C42.7736 30.1505 41.1867 31.3053 38.8624 31.4499C37.8087 31.4748 36.8038 31.1364 36.0158 30.4142C35.4164 29.7841 35.0946 29.0588 34.9772 28.2149C34.9596 28.1189 34.9421 28.0229 34.9239 27.924C34.7973 26.3118 35.6038 24.6378 36.5911 23.4266C36.679 23.3296 36.7681 23.2338 36.8589 23.1394C36.8992 23.095 36.9395 23.0505 36.981 23.0047C38.2194 21.6979 39.9845 20.6294 41.8517 20.5913C44.083 20.5684 45.6843 22.0789 45.8893 24.2619Z" fill="#DCE3EB"/>
<path d="M37.7961 16.0088C37.7995 16.0854 37.8028 16.162 37.8062 16.2409C37.8121 16.3638 37.8121 16.3638 37.8182 16.4891C37.8253 18.3019 36.7551 20.0275 35.5216 21.2718C34.1963 22.548 32.4371 23.4971 30.5276 23.4636C29.459 23.3617 28.5058 23.0176 27.7542 22.2096C27.0142 21.2715 26.7959 20.2185 26.881 19.0612C27.0071 18.183 27.3078 17.4152 27.709 16.6354C27.7478 16.5577 27.7866 16.4801 27.8266 16.4C28.7351 14.8088 30.422 13.4616 32.1743 12.8919C32.2509 12.8651 32.3276 12.8382 32.4065 12.8105C33.5068 12.4571 34.6814 12.4701 35.7495 12.9823C36.8871 13.6191 37.6794 14.7109 37.7961 16.0088Z" fill="#DCE3EB"/>
<path d="M46.8084 36.1644C46.9318 37.5363 46.2985 38.6811 45.4474 39.6893C44.1819 41.0937 42.3238 42.1918 40.3837 42.3241C39.2953 42.3646 38.3528 42.1586 37.4684 41.4753C36.8026 40.8616 36.5095 40.0882 36.4652 39.2092C36.4721 38.612 36.6097 38.1182 36.855 37.5808C36.884 37.5167 36.913 37.4527 36.9428 37.3867C37.8079 35.6921 39.614 34.4449 41.3991 33.8595C41.9188 33.6997 42.4235 33.5919 42.9724 33.573C43.0632 33.5689 43.154 33.5647 43.2475 33.5605C44.9586 33.5268 46.4936 34.3871 46.8084 36.1644Z" fill="#DCE3EB"/>
<path d="M24.677 14.1892C24.9679 16.1329 24.2826 17.9722 23.1293 19.4947C22.1881 20.6774 20.9307 21.6962 19.3806 21.9205C18.6592 21.9851 17.9346 21.8668 17.3205 21.4439C16.3765 20.6394 16.0205 19.8229 15.9002 18.6213C15.8142 16.8592 16.7802 14.9319 17.9521 13.6745C19.0497 12.5527 20.1738 11.6542 21.8367 11.6223C23.3133 11.74 24.3563 12.7838 24.677 14.1892Z" fill="#DCE3EB"/>
</g>
<defs>
<filter id="filter0_d_2_6" x="0.0078125" y="0" width="65.4574" height="65.9024" filterUnits="userSpaceOnUse" color-interpolation-filters="sRGB">
<feFlood flood-opacity="0" result="BackgroundImageFix"/>
<feColorMatrix in="SourceAlpha" type="matrix" values="0 0 0 0 0 0 0 0 0 0 0 0 0 0 0 0 0 0 127 0" result="hardAlpha"/>
<feOffset dx="4" dy="5"/>
<feGaussianBlur stdDeviation="1"/>
<feComposite in2="hardAlpha" operator="out"/>
<feColorMatrix type="matrix" values="0 0 0 0 0 0 0 0 0 0 0 0 0 0 0 0 0 0 0.25 0"/>
<feBlend mode="normal" in2="BackgroundImageFix" result="effect1_dropShadow_2_6"/>
<feBlend mode="normal" in="SourceGraphic" in2="effect1_dropShadow_2_6" result="shape"/>
</filter>
<filter id="filter1_d_2_6" x="11.0499" y="58.9024" width="22.9878" height="17.0976" filterUnits="userSpaceOnUse" color-interpolation-filters="sRGB">
<feFlood flood-opacity="0" result="BackgroundImageFix"/>
<feColorMatrix in="SourceAlpha" type="matrix" values="0 0 0 0 0 0 0 0 0 0 0 0 0 0 0 0 0 0 127 0" result="hardAlpha"/>
<feOffset dx="4" dy="5"/>
<feGaussianBlur stdDeviation="1"/>
<feComposite in2="hardAlpha" operator="out"/>
<feColorMatrix type="matrix" values="0 0 0 0 0 0 0 0 0 0 0 0 0 0 0 0 0 0 0.25 0"/>
<feBlend mode="normal" in2="BackgroundImageFix" result="effect1_dropShadow_2_6"/>
<feBlend mode="normal" in="SourceGraphic" in2="effect1_dropShadow_2_6" result="shape"/>
</filter>
<clipPath id="clip0_2_6">
<rect width="41.645" height="40.6979" fill="white" transform="matrix(0.709832 0.704371 -0.709832 0.704371 29.0001 0)"/>
</clipPath>
</defs>
</svg>
