<svg width="254" height="76" viewBox="0 0 254 76" fill="none" xmlns="http://www.w3.org/2000/svg">
<g filter="url(#filter0_d_312_792)">
<rect width="59.4574" height="58.9024" rx="11" fill="#0E2F51"/>
</g>
<g filter="url(#filter1_d_312_792)">
<path d="M11.0421 58.9025C17.4552 72.065 21.6594 72.6634 28.0299 58.9025H11.0421Z" fill="#0E2F51"/>
</g>
<g clip-path="url(#clip0_312_792)">
<path d="M32.3937 32.4896C32.4274 32.8679 32.4462 33.2448 32.4593 33.6238C32.4681 33.8502 32.4819 34.0764 32.4957 34.3027C32.5259 34.8007 32.5427 35.2967 32.5443 35.7951C32.5485 36.0002 32.5632 36.2019 32.5817 36.4065C32.6133 36.7636 32.621 37.1184 32.6227 37.4759C32.6244 37.8265 32.6312 38.1741 32.6634 38.5241C32.7046 38.9732 32.7041 39.4201 32.7039 39.8696C32.7066 40.1144 32.7225 40.3564 32.7429 40.6008C32.8888 42.3589 32.9148 44.0236 31.7304 45.4333C30.5979 46.7031 29.2138 47.4642 27.459 47.5526C26.0338 47.5444 24.7664 47.0552 23.7087 46.0922C22.7697 45.129 22.0906 43.9325 21.4008 42.7907C20.6538 41.5549 19.8979 40.448 18.8765 39.4145C18.8161 39.353 18.7557 39.2914 18.6935 39.228C17.7523 38.3052 16.6343 37.6445 15.4955 36.9973C13.2094 35.6981 13.2094 35.6981 12.2986 34.7698C12.2514 34.7221 12.2042 34.6744 12.1556 34.6253C11.1616 33.5868 10.6735 32.3582 10.6312 30.9387C10.7286 29.1259 11.4874 27.7402 12.82 26.5635C13.7481 25.7977 14.854 25.5584 16.0478 25.5637C16.1217 25.5638 16.1955 25.5638 16.2716 25.5639C17.0671 25.5656 17.8581 25.5704 18.6525 25.6377C18.9076 25.657 19.1609 25.6593 19.4162 25.6588C19.7488 25.6606 20.0764 25.6685 20.4083 25.6984C20.7634 25.7301 21.1161 25.7372 21.4717 25.7389C21.8958 25.7409 22.3142 25.7594 22.7373 25.7976C23.0012 25.8155 23.2631 25.8175 23.5272 25.819C23.9377 25.8215 24.3425 25.8369 24.752 25.8743C24.8865 25.886 25.0212 25.8948 25.1559 25.9006C28.7152 26.0751 31.8717 29.0038 32.3937 32.4896Z" fill="#6B91AC"/>
<path d="M45.8815 24.2618C45.9871 25.8027 45.2156 27.3326 44.2754 28.491C42.7658 30.1504 41.1789 31.3053 38.8546 31.4499C37.8008 31.4748 36.796 31.1363 36.0079 30.4142C35.4086 29.7841 35.0868 29.0588 34.9694 28.2149C34.9518 28.1189 34.9342 28.0229 34.9161 27.924C34.7895 26.3117 35.596 24.6377 36.5833 23.4265C36.6712 23.3296 36.7603 23.2337 36.851 23.1394C36.8914 23.0949 36.9317 23.0505 36.9732 23.0047C38.2116 21.6979 39.9767 20.6293 41.8439 20.5912C44.0752 20.5684 45.6765 22.0788 45.8815 24.2618Z" fill="#6B91AC"/>
<path d="M37.7884 16.0088C37.7917 16.0854 37.795 16.162 37.7984 16.241C37.8044 16.3638 37.8044 16.3638 37.8104 16.4891C37.8175 18.302 36.7473 20.0275 35.5139 21.2718C34.1885 22.5481 32.4294 23.4971 30.5198 23.4636C29.4512 23.3617 28.4981 23.0176 27.7464 22.2097C27.0064 21.2716 26.7881 20.2185 26.8732 19.0612C26.9993 18.183 27.3001 17.4152 27.7012 16.6354C27.74 16.5577 27.7789 16.4801 27.8189 16.4001C28.7273 14.8088 30.4142 13.4617 32.1665 12.892C32.2432 12.8651 32.3198 12.8382 32.3988 12.8105C33.499 12.4571 34.6736 12.4702 35.7417 12.9823C36.8793 13.6191 37.6716 14.7109 37.7884 16.0088Z" fill="#6B91AC"/>
<path d="M46.8006 36.1644C46.924 37.5363 46.2907 38.6811 45.4396 39.6893C44.1741 41.0937 42.316 42.1918 40.3759 42.3241C39.2876 42.3646 38.345 42.1586 37.4606 41.4753C36.7949 40.8616 36.5017 40.0882 36.4575 39.2092C36.4643 38.612 36.6019 38.1182 36.8472 37.5808C36.8762 37.5167 36.9052 37.4527 36.9351 37.3867C37.8001 35.6921 39.6062 34.4449 41.3913 33.8595C41.911 33.6997 42.4157 33.5919 42.9646 33.573C43.0554 33.5689 43.1462 33.5647 43.2398 33.5605C44.9508 33.5268 46.4858 34.3871 46.8006 36.1644Z" fill="#6B91AC"/>
<path d="M24.6692 14.1892C24.9601 16.1329 24.2747 17.9722 23.1215 19.4947C22.1803 20.6774 20.9229 21.6962 19.3728 21.9205C18.6514 21.9851 17.9268 21.8668 17.3127 21.4439C16.3687 20.6394 16.0127 19.8229 15.8924 18.6213C15.8064 16.8592 16.7724 14.9319 17.9443 13.6745C19.0419 12.5527 20.166 11.6542 21.8288 11.6223C23.3055 11.74 24.3485 12.7838 24.6692 14.1892Z" fill="#6B91AC"/>
</g>
<path d="M86.048 27.976L83.2 26.6L92.192 5.128C92.512 4.38133 93.0347 4.008 93.76 4.008C94.528 4.008 95.0507 4.38133 95.328 5.128L104.352 26.664L101.696 27.976L93.568 8.264H94.016L86.048 27.976ZM82.464 34.696C81.9947 34.696 81.6 34.536 81.28 34.216C80.96 33.896 80.8 33.5013 80.8 33.032V27.72C80.8 27.2293 80.96 26.8347 81.28 26.536C81.6 26.216 81.9947 26.056 82.464 26.056H104.992C105.483 26.056 105.877 26.216 106.176 26.536C106.496 26.8347 106.656 27.2293 106.656 27.72V33.032C106.656 33.5013 106.496 33.896 106.176 34.216C105.877 34.536 105.483 34.696 104.992 34.696C104.523 34.696 104.128 34.536 103.808 34.216C103.488 33.896 103.328 33.5013 103.328 33.032V29H84.128V33.032C84.128 33.5013 83.968 33.896 83.648 34.216C83.3493 34.536 82.9547 34.696 82.464 34.696ZM119.885 29.128C118.157 29.128 116.631 28.7547 115.309 28.008C113.986 27.24 112.941 26.1947 112.173 24.872C111.426 23.528 111.053 21.992 111.053 20.264C111.053 18.5147 111.426 16.9787 112.173 15.656C112.941 14.312 113.986 13.2667 115.309 12.52C116.631 11.752 118.157 11.368 119.885 11.368C121.591 11.368 123.106 11.752 124.429 12.52C125.751 13.2667 126.786 14.312 127.533 15.656C128.301 16.9787 128.685 18.5147 128.685 20.264C128.685 21.992 128.311 23.528 127.565 24.872C126.818 26.1947 125.783 27.24 124.461 28.008C123.138 28.7547 121.613 29.128 119.885 29.128ZM119.885 26.248C120.994 26.248 121.975 25.992 122.829 25.48C123.682 24.968 124.343 24.264 124.813 23.368C125.303 22.472 125.549 21.4373 125.549 20.264C125.549 19.0907 125.303 18.056 124.813 17.16C124.343 16.2427 123.682 15.528 122.829 15.016C121.975 14.504 120.994 14.248 119.885 14.248C118.775 14.248 117.794 14.504 116.941 15.016C116.087 15.528 115.415 16.2427 114.925 17.16C114.434 18.056 114.189 19.0907 114.189 20.264C114.189 21.4373 114.434 22.472 114.925 23.368C115.415 24.264 116.087 24.968 116.941 25.48C117.794 25.992 118.775 26.248 119.885 26.248ZM143.143 29.128C141.436 29.128 139.921 28.776 138.599 28.072C137.276 27.368 136.241 26.3973 135.495 25.16C134.748 23.9013 134.364 22.472 134.343 20.872H135.911C135.911 19.2507 136.241 17.832 136.903 16.616C137.585 15.3787 138.513 14.408 139.687 13.704C140.881 13 142.247 12.648 143.783 12.648C145.319 12.648 146.673 13 147.847 13.704C149.041 14.408 149.969 15.3787 150.631 16.616C151.313 17.832 151.655 19.2507 151.655 20.872C151.655 22.472 151.292 23.9013 150.567 25.16C149.841 26.3973 148.839 27.368 147.559 28.072C146.279 28.776 144.807 29.128 143.143 29.128ZM143.143 26.248C144.209 26.248 145.137 26.024 145.927 25.576C146.737 25.1067 147.367 24.4667 147.815 23.656C148.284 22.8453 148.519 21.9173 148.519 20.872C148.519 19.8267 148.284 18.9093 147.815 18.12C147.367 17.3093 146.737 16.68 145.927 16.232C145.137 15.7627 144.209 15.528 143.143 15.528C142.033 15.528 141.052 15.7627 140.199 16.232C139.345 16.68 138.673 17.3093 138.183 18.12C137.713 18.9093 137.479 19.8267 137.479 20.872C137.479 21.9173 137.713 22.8453 138.183 23.656C138.673 24.4667 139.345 25.1067 140.199 25.576C141.052 26.024 142.033 26.248 143.143 26.248ZM134.343 20.872L134.375 17.256C134.396 14.7387 135.089 12.4347 136.455 10.344C137.841 8.25333 139.985 6.55733 142.887 5.256L148.871 2.6C149.297 2.42933 149.681 2.408 150.023 2.536C150.364 2.64267 150.609 2.888 150.759 3.272C150.908 3.67733 150.94 4.05067 150.855 4.392C150.791 4.712 150.481 5 149.927 5.256L143.431 8.232C141.937 8.91467 140.711 9.72533 139.751 10.664C138.791 11.6027 138.076 12.6587 137.607 13.832C137.159 14.984 136.913 16.232 136.871 17.576L136.807 20.872H134.343ZM159.75 36.488C159.28 36.488 158.886 36.328 158.566 36.008C158.267 35.7093 158.118 35.3253 158.118 34.856V20.264C158.139 18.5787 158.534 17.064 159.302 15.72C160.07 14.376 161.115 13.32 162.438 12.552C163.76 11.7627 165.254 11.368 166.918 11.368C168.603 11.368 170.107 11.7627 171.43 12.552C172.752 13.32 173.798 14.376 174.566 15.72C175.355 17.064 175.75 18.5787 175.75 20.264C175.75 21.9493 175.387 23.464 174.662 24.808C173.958 26.1307 172.987 27.1867 171.75 27.976C170.512 28.744 169.115 29.128 167.558 29.128C166.299 29.128 165.136 28.872 164.07 28.36C163.024 27.8267 162.128 27.112 161.382 26.216V34.856C161.382 35.3253 161.232 35.7093 160.934 36.008C160.635 36.328 160.24 36.488 159.75 36.488ZM166.918 26.248C168.006 26.248 168.976 25.992 169.83 25.48C170.683 24.9467 171.355 24.232 171.846 23.336C172.358 22.4187 172.614 21.3947 172.614 20.264C172.614 19.112 172.358 18.088 171.846 17.192C171.355 16.2747 170.683 15.56 169.83 15.048C168.976 14.5147 168.006 14.248 166.918 14.248C165.851 14.248 164.88 14.5147 164.006 15.048C163.152 15.56 162.48 16.2747 161.99 17.192C161.499 18.088 161.254 19.112 161.254 20.264C161.254 21.3947 161.499 22.4187 161.99 23.336C162.48 24.232 163.152 24.9467 164.006 25.48C164.88 25.992 165.851 26.248 166.918 26.248ZM189.546 29.32C188.116 29.32 186.847 29.0213 185.738 28.424C184.628 27.8053 183.764 26.9627 183.146 25.896C182.527 24.8293 182.218 23.6133 182.218 22.248V13.096C182.26 12.6267 182.431 12.2427 182.73 11.944C183.028 11.6453 183.402 11.496 183.85 11.496C184.34 11.496 184.735 11.6453 185.034 11.944C185.332 12.2427 185.482 12.6373 185.482 13.128V16.712H189.866C191.21 16.712 192.394 16.9467 193.418 17.416C194.463 17.8853 195.274 18.568 195.85 19.464C196.447 20.36 196.746 21.4587 196.746 22.76C196.746 24.1467 196.436 25.3307 195.818 26.312C195.22 27.2933 194.378 28.04 193.29 28.552C192.202 29.064 190.954 29.32 189.546 29.32ZM189.546 26.28C190.74 26.28 191.711 25.992 192.458 25.416C193.226 24.8187 193.61 23.9333 193.61 22.76C193.61 21.6293 193.258 20.7973 192.554 20.264C191.85 19.7307 190.954 19.464 189.866 19.464H185.482V22.184C185.482 23.3787 185.855 24.36 186.602 25.128C187.37 25.896 188.351 26.28 189.546 26.28ZM201.162 29C200.692 29 200.298 28.8507 199.978 28.552C199.679 28.232 199.53 27.8373 199.53 27.368V13.128C199.53 12.6373 199.679 12.2427 199.978 11.944C200.298 11.6453 200.692 11.496 201.162 11.496C201.652 11.496 202.047 11.6453 202.346 11.944C202.644 12.2427 202.794 12.6373 202.794 13.128V27.368C202.794 27.8373 202.644 28.232 202.346 28.552C202.047 28.8507 201.652 29 201.162 29ZM217.521 29.16C216.049 29.16 214.727 28.8507 213.553 28.232C212.401 27.592 211.484 26.664 210.801 25.448C210.14 24.232 209.809 22.7387 209.809 20.968V13.096C209.809 12.6267 209.959 12.2427 210.257 11.944C210.577 11.624 210.972 11.464 211.441 11.464C211.911 11.464 212.295 11.624 212.593 11.944C212.913 12.2427 213.073 12.6267 213.073 13.096V20.968C213.073 22.1627 213.297 23.1547 213.745 23.944C214.193 24.712 214.801 25.288 215.569 25.672C216.337 26.0347 217.201 26.216 218.161 26.216C219.079 26.216 219.889 26.0347 220.593 25.672C221.319 25.3093 221.895 24.8187 222.321 24.2C222.748 23.5813 222.961 22.888 222.961 22.12H224.977C224.977 23.4427 224.647 24.6373 223.985 25.704C223.345 26.7707 222.46 27.6133 221.329 28.232C220.22 28.8507 218.951 29.16 217.521 29.16ZM224.593 29C224.124 29 223.729 28.8507 223.409 28.552C223.111 28.232 222.961 27.8373 222.961 27.368V13.096C222.961 12.6053 223.111 12.2107 223.409 11.912C223.729 11.6133 224.124 11.464 224.593 11.464C225.084 11.464 225.479 11.6133 225.777 11.912C226.076 12.2107 226.225 12.6053 226.225 13.096V27.368C226.225 27.8373 226.076 28.232 225.777 28.552C225.479 28.8507 225.084 29 224.593 29ZM218.193 9.192C217.105 9.192 216.124 9.01067 215.249 8.648C214.375 8.264 213.681 7.752 213.169 7.112C212.657 6.45067 212.401 5.71467 212.401 4.904C212.401 4.456 212.54 4.08267 212.817 3.784C213.095 3.48533 213.436 3.336 213.841 3.336C214.268 3.336 214.609 3.48533 214.865 3.784C215.143 4.08267 215.281 4.456 215.281 4.904C215.281 5.43733 215.559 5.896 216.113 6.28C216.668 6.64267 217.361 6.824 218.193 6.824C219.025 6.824 219.719 6.64267 220.273 6.28C220.828 5.896 221.105 5.43733 221.105 4.904C221.105 4.456 221.244 4.08267 221.521 3.784C221.799 3.48533 222.14 3.336 222.545 3.336C222.972 3.336 223.313 3.48533 223.569 3.784C223.847 4.08267 223.985 4.456 223.985 4.904C223.985 5.71467 223.729 6.45067 223.217 7.112C222.705 7.752 222.012 8.264 221.137 8.648C220.284 9.01067 219.303 9.192 218.193 9.192ZM83.024 48.488L81.6 47.8L86.096 37.064C86.256 36.6907 86.5173 36.504 86.88 36.504C87.264 36.504 87.5253 36.6907 87.664 37.064L92.176 47.832L90.848 48.488L86.784 38.632H87.008L83.024 48.488ZM81.232 51.848C80.9973 51.848 80.8 51.768 80.64 51.608C80.48 51.448 80.4 51.2507 80.4 51.016V48.36C80.4 48.1147 80.48 47.9173 80.64 47.768C80.8 47.608 80.9973 47.528 81.232 47.528H92.496C92.7413 47.528 92.9387 47.608 93.088 47.768C93.248 47.9173 93.328 48.1147 93.328 48.36V51.016C93.328 51.2507 93.248 51.448 93.088 51.608C92.9387 51.768 92.7413 51.848 92.496 51.848C92.2613 51.848 92.064 51.768 91.904 51.608C91.744 51.448 91.664 51.2507 91.664 51.016V49H82.064V51.016C82.064 51.2507 81.984 51.448 81.824 51.608C81.6747 51.768 81.4773 51.848 81.232 51.848ZM99.9424 49.064C99.0784 49.064 98.3157 48.8773 97.6544 48.504C96.993 48.12 96.4704 47.5973 96.0864 46.936C95.713 46.264 95.5264 45.496 95.5264 44.632C95.5264 43.7573 95.713 42.9893 96.0864 42.328C96.4704 41.656 96.993 41.1333 97.6544 40.76C98.3157 40.376 99.0784 40.184 99.9424 40.184C100.796 40.184 101.553 40.376 102.214 40.76C102.876 41.1333 103.393 41.656 103.766 42.328C104.15 42.9893 104.342 43.7573 104.342 44.632C104.342 45.496 104.156 46.264 103.782 46.936C103.409 47.5973 102.892 48.12 102.23 48.504C101.569 48.8773 100.806 49.064 99.9424 49.064ZM99.9424 47.624C100.497 47.624 100.988 47.496 101.414 47.24C101.841 46.984 102.172 46.632 102.406 46.184C102.652 45.736 102.774 45.2187 102.774 44.632C102.774 44.0453 102.652 43.528 102.406 43.08C102.172 42.6213 101.841 42.264 101.414 42.008C100.988 41.752 100.497 41.624 99.9424 41.624C99.3877 41.624 98.897 41.752 98.4704 42.008C98.0437 42.264 97.7077 42.6213 97.4624 43.08C97.217 43.528 97.0944 44.0453 97.0944 44.632C97.0944 45.2187 97.217 45.736 97.4624 46.184C97.7077 46.632 98.0437 46.984 98.4704 47.24C98.897 47.496 99.3877 47.624 99.9424 47.624ZM114.675 48.808C114.537 48.936 114.339 49 114.083 49C113.838 48.9893 113.646 48.9147 113.507 48.776L109.619 44.6L113.283 40.504C113.422 40.3547 113.614 40.2693 113.859 40.248C114.115 40.2267 114.313 40.28 114.451 40.408C114.611 40.5573 114.702 40.728 114.723 40.92C114.745 41.1013 114.686 41.2667 114.547 41.416L111.651 44.52L114.723 47.816C114.862 47.9547 114.931 48.12 114.931 48.312C114.931 48.4933 114.846 48.6587 114.675 48.808ZM108.339 49.016C108.105 49.016 107.918 48.9413 107.779 48.792C107.641 48.632 107.571 48.4347 107.571 48.2V41.064C107.571 40.8187 107.641 40.6213 107.779 40.472C107.918 40.3227 108.105 40.248 108.339 40.248C108.585 40.248 108.782 40.3227 108.931 40.472C109.091 40.6213 109.171 40.8187 109.171 41.064V43.736H111.219V45.24H109.171V48.2C109.171 48.4347 109.091 48.632 108.931 48.792C108.782 48.9413 108.585 49.016 108.339 49.016ZM129.219 49.016C128.984 49.016 128.787 48.9413 128.627 48.792C128.477 48.632 128.403 48.4347 128.403 48.2V43.624C128.403 42.952 128.237 42.456 127.907 42.136C127.576 41.8053 127.144 41.64 126.611 41.64C126.056 41.64 125.597 41.832 125.235 42.216C124.883 42.6 124.707 43.0907 124.707 43.688H123.379C123.379 42.9947 123.528 42.3867 123.827 41.864C124.125 41.3307 124.541 40.9147 125.075 40.616C125.619 40.3173 126.237 40.168 126.931 40.168C127.539 40.168 128.077 40.3013 128.547 40.568C129.016 40.8347 129.379 41.2293 129.635 41.752C129.901 42.264 130.035 42.888 130.035 43.624V48.2C130.035 48.4347 129.96 48.632 129.811 48.792C129.661 48.9413 129.464 49.016 129.219 49.016ZM118.547 49.016C118.312 49.016 118.115 48.9413 117.955 48.792C117.805 48.632 117.731 48.4347 117.731 48.2V41.08C117.731 40.8347 117.805 40.6373 117.955 40.488C118.115 40.3387 118.312 40.264 118.547 40.264C118.792 40.264 118.989 40.3387 119.139 40.488C119.288 40.6373 119.363 40.8347 119.363 41.08V48.2C119.363 48.4347 119.288 48.632 119.139 48.792C118.989 48.9413 118.792 49.016 118.547 49.016ZM123.891 49.016C123.656 49.016 123.459 48.9413 123.299 48.792C123.149 48.632 123.075 48.4347 123.075 48.2V43.624C123.075 42.952 122.909 42.456 122.579 42.136C122.248 41.8053 121.816 41.64 121.283 41.64C120.728 41.64 120.269 41.832 119.907 42.216C119.544 42.6 119.363 43.0907 119.363 43.688H118.355C118.355 42.9947 118.493 42.3867 118.771 41.864C119.048 41.3307 119.432 40.9147 119.923 40.616C120.413 40.3173 120.973 40.168 121.603 40.168C122.211 40.168 122.749 40.3013 123.219 40.568C123.688 40.8347 124.051 41.2293 124.307 41.752C124.573 42.264 124.707 42.888 124.707 43.624V48.2C124.707 48.4347 124.632 48.632 124.483 48.792C124.333 48.9413 124.136 49.016 123.891 49.016ZM137.514 49.064C136.65 49.064 135.888 48.8773 135.226 48.504C134.565 48.12 134.042 47.5973 133.658 46.936C133.285 46.264 133.098 45.496 133.098 44.632C133.098 43.7573 133.285 42.9893 133.658 42.328C134.042 41.656 134.565 41.1333 135.226 40.76C135.888 40.376 136.65 40.184 137.514 40.184C138.368 40.184 139.125 40.376 139.786 40.76C140.448 41.1333 140.965 41.656 141.338 42.328C141.722 42.9893 141.914 43.7573 141.914 44.632C141.914 45.496 141.728 46.264 141.354 46.936C140.981 47.5973 140.464 48.12 139.802 48.504C139.141 48.8773 138.378 49.064 137.514 49.064ZM137.514 47.624C138.069 47.624 138.56 47.496 138.986 47.24C139.413 46.984 139.744 46.632 139.978 46.184C140.224 45.736 140.346 45.2187 140.346 44.632C140.346 44.0453 140.224 43.528 139.978 43.08C139.744 42.6213 139.413 42.264 138.986 42.008C138.56 41.752 138.069 41.624 137.514 41.624C136.96 41.624 136.469 41.752 136.042 42.008C135.616 42.264 135.28 42.6213 135.034 43.08C134.789 43.528 134.666 44.0453 134.666 44.632C134.666 45.2187 134.789 45.736 135.034 46.184C135.28 46.632 135.616 46.984 136.042 47.24C136.469 47.496 136.96 47.624 137.514 47.624ZM145.959 52.744C145.724 52.744 145.527 52.664 145.367 52.504C145.218 52.3547 145.143 52.1627 145.143 51.928V44.632C145.154 43.7893 145.351 43.032 145.735 42.36C146.119 41.688 146.642 41.16 147.303 40.776C147.964 40.3813 148.711 40.184 149.543 40.184C150.386 40.184 151.138 40.3813 151.799 40.776C152.46 41.16 152.983 41.688 153.367 42.36C153.762 43.032 153.959 43.7893 153.959 44.632C153.959 45.4747 153.778 46.232 153.415 46.904C153.063 47.5653 152.578 48.0933 151.959 48.488C151.34 48.872 150.642 49.064 149.863 49.064C149.234 49.064 148.652 48.936 148.119 48.68C147.596 48.4133 147.148 48.056 146.775 47.608V51.928C146.775 52.1627 146.7 52.3547 146.551 52.504C146.402 52.664 146.204 52.744 145.959 52.744ZM149.543 47.624C150.087 47.624 150.572 47.496 150.999 47.24C151.426 46.9733 151.762 46.616 152.007 46.168C152.263 45.7093 152.391 45.1973 152.391 44.632C152.391 44.056 152.263 43.544 152.007 43.096C151.762 42.6373 151.426 42.28 150.999 42.024C150.572 41.7573 150.087 41.624 149.543 41.624C149.01 41.624 148.524 41.7573 148.087 42.024C147.66 42.28 147.324 42.6373 147.079 43.096C146.834 43.544 146.711 44.056 146.711 44.632C146.711 45.1973 146.834 45.7093 147.079 46.168C147.324 46.616 147.66 46.9733 148.087 47.24C148.524 47.496 149.01 47.624 149.543 47.624ZM162.345 49C162.046 49 161.817 48.872 161.657 48.616C161.497 48.36 161.481 48.088 161.609 47.8L166.105 37.064C166.265 36.6907 166.526 36.504 166.889 36.504C167.273 36.504 167.534 36.6907 167.673 37.064L172.185 47.832C172.302 48.1307 172.281 48.4027 172.121 48.648C171.971 48.8827 171.742 49 171.433 49C171.273 49 171.118 48.9573 170.969 48.872C170.83 48.776 170.729 48.648 170.665 48.488L166.697 38.632H167.145L163.113 48.488C163.038 48.6587 162.926 48.7867 162.777 48.872C162.638 48.9573 162.494 49 162.345 49ZM163.193 46.248L163.833 44.872H170.105L170.745 46.248H163.193ZM178.411 49.08C177.675 49.08 177.013 48.9253 176.427 48.616C175.851 48.296 175.392 47.832 175.051 47.224C174.72 46.616 174.555 45.8693 174.555 44.984V41.048C174.555 40.8133 174.629 40.6213 174.779 40.472C174.939 40.312 175.136 40.232 175.371 40.232C175.605 40.232 175.797 40.312 175.947 40.472C176.107 40.6213 176.187 40.8133 176.187 41.048V44.984C176.187 45.5813 176.299 46.0773 176.523 46.472C176.747 46.856 177.051 47.144 177.435 47.336C177.819 47.5173 178.251 47.608 178.731 47.608C179.189 47.608 179.595 47.5173 179.947 47.336C180.309 47.1547 180.597 46.9093 180.811 46.6C181.024 46.2907 181.131 45.944 181.131 45.56H182.139C182.139 46.2213 181.973 46.8187 181.643 47.352C181.323 47.8853 180.88 48.3067 180.315 48.616C179.76 48.9253 179.125 49.08 178.411 49.08ZM181.947 49C181.712 49 181.515 48.9253 181.355 48.776C181.205 48.616 181.131 48.4187 181.131 48.184V41.048C181.131 40.8027 181.205 40.6053 181.355 40.456C181.515 40.3067 181.712 40.232 181.947 40.232C182.192 40.232 182.389 40.3067 182.539 40.456C182.688 40.6053 182.763 40.8027 182.763 41.048V48.184C182.763 48.4187 182.688 48.616 182.539 48.776C182.389 48.9253 182.192 49 181.947 49ZM178.747 39.096C178.203 39.096 177.712 39.0053 177.275 38.824C176.837 38.632 176.491 38.376 176.235 38.056C175.979 37.7253 175.851 37.3573 175.851 36.952C175.851 36.728 175.92 36.5413 176.059 36.392C176.197 36.2427 176.368 36.168 176.571 36.168C176.784 36.168 176.955 36.2427 177.083 36.392C177.221 36.5413 177.291 36.728 177.291 36.952C177.291 37.2187 177.429 37.448 177.707 37.64C177.984 37.8213 178.331 37.912 178.747 37.912C179.163 37.912 179.509 37.8213 179.787 37.64C180.064 37.448 180.203 37.2187 180.203 36.952C180.203 36.728 180.272 36.5413 180.411 36.392C180.549 36.2427 180.72 36.168 180.923 36.168C181.136 36.168 181.307 36.2427 181.435 36.392C181.573 36.5413 181.643 36.728 181.643 36.952C181.643 37.3573 181.515 37.7253 181.259 38.056C181.003 38.376 180.656 38.632 180.219 38.824C179.792 39.0053 179.301 39.096 178.747 39.096ZM190.437 49.064C189.584 49.064 188.826 48.888 188.165 48.536C187.504 48.184 186.986 47.6987 186.613 47.08C186.24 46.4507 186.048 45.736 186.037 44.936H186.821C186.821 44.1253 186.986 43.416 187.317 42.808C187.658 42.1893 188.122 41.704 188.709 41.352C189.306 41 189.989 40.824 190.757 40.824C191.525 40.824 192.202 41 192.789 41.352C193.386 41.704 193.85 42.1893 194.181 42.808C194.522 43.416 194.693 44.1253 194.693 44.936C194.693 45.736 194.512 46.4507 194.149 47.08C193.786 47.6987 193.285 48.184 192.645 48.536C192.005 48.888 191.269 49.064 190.437 49.064ZM190.437 47.624C190.97 47.624 191.434 47.512 191.829 47.288C192.234 47.0533 192.549 46.7333 192.773 46.328C193.008 45.9227 193.125 45.4587 193.125 44.936C193.125 44.4133 193.008 43.9547 192.773 43.56C192.549 43.1547 192.234 42.84 191.829 42.616C191.434 42.3813 190.97 42.264 190.437 42.264C189.882 42.264 189.392 42.3813 188.965 42.616C188.538 42.84 188.202 43.1547 187.957 43.56C187.722 43.9547 187.605 44.4133 187.605 44.936C187.605 45.4587 187.722 45.9227 187.957 46.328C188.202 46.7333 188.538 47.0533 188.965 47.288C189.392 47.512 189.882 47.624 190.437 47.624ZM186.037 44.936L186.053 43.128C186.064 41.8693 186.41 40.7173 187.093 39.672C187.786 38.6267 188.858 37.7787 190.309 37.128L193.301 35.8C193.514 35.7147 193.706 35.704 193.877 35.768C194.048 35.8213 194.17 35.944 194.245 36.136C194.32 36.3387 194.336 36.5253 194.293 36.696C194.261 36.856 194.106 37 193.829 37.128L190.581 38.616C189.834 38.9573 189.221 39.3627 188.741 39.832C188.261 40.3013 187.904 40.8293 187.669 41.416C187.445 41.992 187.322 42.616 187.301 43.288L187.269 44.936H186.037ZM201.892 49.064C201.028 49.064 200.266 48.8773 199.604 48.504C198.943 48.12 198.42 47.5973 198.036 46.936C197.663 46.264 197.476 45.496 197.476 44.632C197.476 43.7573 197.663 42.9893 198.036 42.328C198.42 41.656 198.943 41.1333 199.604 40.76C200.266 40.376 201.028 40.184 201.892 40.184C202.746 40.184 203.503 40.376 204.164 40.76C204.826 41.1333 205.343 41.656 205.716 42.328C206.1 42.9893 206.292 43.7573 206.292 44.632C206.292 45.496 206.106 46.264 205.732 46.936C205.359 47.5973 204.842 48.12 204.18 48.504C203.519 48.8773 202.756 49.064 201.892 49.064ZM201.892 47.624C202.447 47.624 202.938 47.496 203.364 47.24C203.791 46.984 204.122 46.632 204.356 46.184C204.602 45.736 204.724 45.2187 204.724 44.632C204.724 44.0453 204.602 43.528 204.356 43.08C204.122 42.6213 203.791 42.264 203.364 42.008C202.938 41.752 202.447 41.624 201.892 41.624C201.338 41.624 200.847 41.752 200.42 42.008C199.994 42.264 199.658 42.6213 199.412 43.08C199.167 43.528 199.044 44.0453 199.044 44.632C199.044 45.2187 199.167 45.736 199.412 46.184C199.658 46.632 199.994 46.984 200.42 47.24C200.847 47.496 201.338 47.624 201.892 47.624ZM212.801 40.264C212.961 40.264 213.105 40.3067 213.233 40.392C213.361 40.4773 213.463 40.6107 213.537 40.792L216.833 47.944C216.929 48.1573 216.94 48.3493 216.865 48.52C216.791 48.68 216.663 48.8027 216.481 48.888C216.247 48.9947 216.044 49.0213 215.873 48.968C215.703 48.9147 215.559 48.7813 215.441 48.568L212.433 41.736H213.249L210.145 48.568C210.049 48.7707 209.905 48.904 209.713 48.968C209.532 49.0213 209.329 48.9947 209.105 48.888C208.903 48.792 208.759 48.664 208.673 48.504C208.599 48.344 208.615 48.1573 208.721 47.944L212.033 40.792C212.193 40.44 212.449 40.264 212.801 40.264ZM223.392 49.08C222.656 49.08 221.995 48.9253 221.408 48.616C220.832 48.296 220.373 47.832 220.032 47.224C219.701 46.616 219.536 45.8693 219.536 44.984V41.048C219.536 40.8133 219.611 40.6213 219.76 40.472C219.92 40.312 220.117 40.232 220.352 40.232C220.587 40.232 220.779 40.312 220.928 40.472C221.088 40.6213 221.168 40.8133 221.168 41.048V44.984C221.168 45.5813 221.28 46.0773 221.504 46.472C221.728 46.856 222.032 47.144 222.416 47.336C222.8 47.5173 223.232 47.608 223.712 47.608C224.171 47.608 224.576 47.5173 224.928 47.336C225.291 47.1547 225.579 46.9093 225.792 46.6C226.005 46.2907 226.112 45.944 226.112 45.56H227.12C227.12 46.2213 226.955 46.8187 226.624 47.352C226.304 47.8853 225.861 48.3067 225.296 48.616C224.741 48.9253 224.107 49.08 223.392 49.08ZM226.928 49C226.693 49 226.496 48.9253 226.336 48.776C226.187 48.616 226.112 48.4187 226.112 48.184V41.048C226.112 40.8027 226.187 40.6053 226.336 40.456C226.496 40.3067 226.693 40.232 226.928 40.232C227.173 40.232 227.371 40.3067 227.52 40.456C227.669 40.6053 227.744 40.8027 227.744 41.048V48.184C227.744 48.4187 227.669 48.616 227.52 48.776C227.371 48.9253 227.173 49 226.928 49ZM242.906 49.016C242.671 49.016 242.474 48.9413 242.314 48.792C242.165 48.632 242.09 48.4347 242.09 48.2V43.624C242.09 42.952 241.925 42.456 241.594 42.136C241.263 41.8053 240.831 41.64 240.298 41.64C239.743 41.64 239.285 41.832 238.922 42.216C238.57 42.6 238.394 43.0907 238.394 43.688H237.066C237.066 42.9947 237.215 42.3867 237.514 41.864C237.813 41.3307 238.229 40.9147 238.762 40.616C239.306 40.3173 239.925 40.168 240.618 40.168C241.226 40.168 241.765 40.3013 242.234 40.568C242.703 40.8347 243.066 41.2293 243.322 41.752C243.589 42.264 243.722 42.888 243.722 43.624V48.2C243.722 48.4347 243.647 48.632 243.498 48.792C243.349 48.9413 243.151 49.016 242.906 49.016ZM232.234 49.016C231.999 49.016 231.802 48.9413 231.642 48.792C231.493 48.632 231.418 48.4347 231.418 48.2V41.08C231.418 40.8347 231.493 40.6373 231.642 40.488C231.802 40.3387 231.999 40.264 232.234 40.264C232.479 40.264 232.677 40.3387 232.826 40.488C232.975 40.6373 233.05 40.8347 233.05 41.08V48.2C233.05 48.4347 232.975 48.632 232.826 48.792C232.677 48.9413 232.479 49.016 232.234 49.016ZM237.578 49.016C237.343 49.016 237.146 48.9413 236.986 48.792C236.837 48.632 236.762 48.4347 236.762 48.2V43.624C236.762 42.952 236.597 42.456 236.266 42.136C235.935 41.8053 235.503 41.64 234.97 41.64C234.415 41.64 233.957 41.832 233.594 42.216C233.231 42.6 233.05 43.0907 233.05 43.688H232.042C232.042 42.9947 232.181 42.3867 232.458 41.864C232.735 41.3307 233.119 40.9147 233.61 40.616C234.101 40.3173 234.661 40.168 235.29 40.168C235.898 40.168 236.437 40.3013 236.906 40.568C237.375 40.8347 237.738 41.2293 237.994 41.752C238.261 42.264 238.394 42.888 238.394 43.624V48.2C238.394 48.4347 238.319 48.632 238.17 48.792C238.021 48.9413 237.823 49.016 237.578 49.016Z" fill="#0E2F51"/>
<defs>
<filter id="filter0_d_312_792" x="0" y="0" width="65.4574" height="65.9025" filterUnits="userSpaceOnUse" color-interpolation-filters="sRGB">
<feFlood flood-opacity="0" result="BackgroundImageFix"/>
<feColorMatrix in="SourceAlpha" type="matrix" values="0 0 0 0 0 0 0 0 0 0 0 0 0 0 0 0 0 0 127 0" result="hardAlpha"/>
<feOffset dx="4" dy="5"/>
<feGaussianBlur stdDeviation="1"/>
<feComposite in2="hardAlpha" operator="out"/>
<feColorMatrix type="matrix" values="0 0 0 0 0 0 0 0 0 0 0 0 0 0 0 0 0 0 0.25 0"/>
<feBlend mode="normal" in2="BackgroundImageFix" result="effect1_dropShadow_312_792"/>
<feBlend mode="normal" in="SourceGraphic" in2="effect1_dropShadow_312_792" result="shape"/>
</filter>
<filter id="filter1_d_312_792" x="11.0421" y="58.9025" width="22.9878" height="17.0975" filterUnits="userSpaceOnUse" color-interpolation-filters="sRGB">
<feFlood flood-opacity="0" result="BackgroundImageFix"/>
<feColorMatrix in="SourceAlpha" type="matrix" values="0 0 0 0 0 0 0 0 0 0 0 0 0 0 0 0 0 0 127 0" result="hardAlpha"/>
<feOffset dx="4" dy="5"/>
<feGaussianBlur stdDeviation="1"/>
<feComposite in2="hardAlpha" operator="out"/>
<feColorMatrix type="matrix" values="0 0 0 0 0 0 0 0 0 0 0 0 0 0 0 0 0 0 0.25 0"/>
<feBlend mode="normal" in2="BackgroundImageFix" result="effect1_dropShadow_312_792"/>
<feBlend mode="normal" in="SourceGraphic" in2="effect1_dropShadow_312_792" result="shape"/>
</filter>
<clipPath id="clip0_312_792">
<rect width="41.645" height="40.6979" fill="white" transform="matrix(0.709832 0.704371 -0.709832 0.704371 28.9922 0)"/>
</clipPath>
</defs>
</svg>
