<svg width="51" height="50" viewBox="0 0 51 50" fill="none" xmlns="http://www.w3.org/2000/svg">
<path d="M28.0737 5.375C28.1305 5.38676 28.1873 5.39851 28.2458 5.41062C30.263 5.84607 32.1143 6.77934 33.6163 8.1875C33.7001 8.2581 33.784 8.32843 33.8683 8.39844C35.9365 10.1999 37.1878 13.0914 37.3865 15.7821C37.5131 18.0029 37.0851 20.165 36.0097 22.125C35.9892 22.1632 35.9686 22.2013 35.9475 22.2407C35.1948 23.634 34.1023 24.8992 32.8081 25.823C32.5796 25.9739 32.5796 25.9739 32.4196 26.1875C32.4658 26.1956 32.5121 26.2037 32.5597 26.2121C34.5098 26.6353 36.7049 28.1506 38.1323 29.49C38.2554 29.6047 38.3809 29.7142 38.5089 29.8235C39.2467 30.4618 39.9525 31.1633 40.5446 31.9375C40.6074 32.0162 40.6703 32.0948 40.7333 32.1733C43.1366 35.1953 44.6827 39.1044 44.7213 42.9766C44.7231 43.0381 44.7249 43.0997 44.7268 43.1631C44.731 43.6416 44.6345 43.9584 44.333 44.332C44.2777 44.3842 44.2777 44.3842 44.2213 44.4375C44.1842 44.4736 44.147 44.5097 44.1087 44.5469C44.0088 44.625 44.0088 44.625 43.8828 44.625C43.862 44.6869 43.8412 44.7487 43.8198 44.8125C43.7367 44.8125 43.6535 44.8125 43.5679 44.8125C43.4625 44.8315 43.3575 44.852 43.2529 44.875C43.2529 44.9162 43.2529 44.9575 43.2529 45C43.001 45 43.001 45 42.8908 44.9062C42.8648 44.8753 42.8388 44.8444 42.8121 44.8125C42.8121 44.8537 42.8121 44.895 42.8121 44.9375C42.6486 44.8564 42.4953 44.7629 42.3397 44.668C42.278 44.6308 42.2163 44.5937 42.1527 44.5554C41.995 44.4388 41.9346 44.3676 41.8673 44.1875C41.8257 44.1875 41.7841 44.1875 41.7413 44.1875C41.5827 43.8149 41.5176 43.4916 41.4894 43.0898C41.4794 42.9729 41.4692 42.8559 41.4589 42.739C41.4536 42.6789 41.4484 42.6189 41.443 42.557C41.3186 41.1943 41.0496 39.8602 40.6076 38.5625C40.566 38.5625 40.5245 38.5625 40.4816 38.5625C40.4738 38.4542 40.4738 38.4542 40.4659 38.3438C40.4347 38.0955 40.356 37.9144 40.2366 37.6963C40.1592 37.5481 40.0978 37.3977 40.0368 37.2422C39.9446 37.0079 39.8438 36.7849 39.7258 36.5625C39.6842 36.5625 39.6427 36.5625 39.5998 36.5625C39.5843 36.4997 39.5688 36.4368 39.5529 36.3721C39.4786 36.1143 39.3572 35.9001 39.218 35.6719C38.9768 35.2703 38.9768 35.2703 38.907 35.0625C38.8654 35.0625 38.8239 35.0625 38.781 35.0625C38.781 35.0006 38.781 34.9387 38.781 34.875C38.7395 34.875 38.6979 34.875 38.6551 34.875C38.6551 34.8131 38.6551 34.7513 38.6551 34.6875C38.6135 34.6875 38.5719 34.6875 38.5291 34.6875C38.4386 34.5732 38.4386 34.5732 38.3402 34.4219C38.3077 34.3726 38.2752 34.3233 38.2417 34.2725C38.1619 34.1425 38.0912 34.0123 38.0252 33.875C37.9837 33.875 37.9421 33.875 37.8993 33.875C37.8603 33.8157 37.8213 33.7564 37.7812 33.6953C37.6474 33.5 37.5979 33.4688 37.3954 33.375C37.3533 33.2917 37.3114 33.2084 37.2694 33.125C37.1808 33.0191 37.1808 33.0191 37.0775 32.9202C37.0398 32.8829 37.0022 32.8456 36.9634 32.8073C36.9241 32.769 36.8848 32.7308 36.8443 32.6914C36.806 32.6534 36.7676 32.6154 36.7281 32.5763C36.3538 32.1545 36.3538 32.1545 35.8838 31.9375C35.8838 31.8756 35.8838 31.8138 35.8838 31.75C35.8422 31.75 35.8006 31.75 35.7578 31.75C35.7578 31.7087 35.7578 31.6675 35.7578 31.625C35.6263 31.5551 35.515 31.5018 35.3681 31.4727C35.3304 31.4611 35.2927 31.4495 35.2539 31.4375C35.2331 31.3756 35.2123 31.3138 35.1909 31.25C35.0883 31.1735 35.0883 31.1735 34.9665 31.1133C34.8951 31.0759 34.8237 31.0385 34.75 31C34.75 30.9588 34.75 30.9175 34.75 30.875C34.6669 30.875 34.5838 30.875 34.4981 30.875C34.4293 30.8046 34.3608 30.7338 34.2941 30.6614C34.0428 30.4374 33.7314 30.2685 33.4274 30.125C33.3858 30.1456 33.3442 30.1663 33.3014 30.1875C33.3014 30.1256 33.3014 30.0638 33.3014 30C33.2442 29.982 33.1871 29.9639 33.1282 29.9453C32.9235 29.875 32.9235 29.875 32.7818 29.8008C32.7272 29.7756 32.7272 29.7756 32.6716 29.75C32.63 29.7706 32.5884 29.7913 32.5456 29.8125C32.5456 29.7506 32.5456 29.6888 32.5456 29.625C32.5119 29.6142 32.4783 29.6034 32.4436 29.5922C32.1822 29.5071 31.9232 29.4182 31.666 29.3213C31.5886 29.2922 31.5886 29.2922 31.5097 29.2625C31.4033 29.2222 31.297 29.1817 31.1908 29.1409C31.1398 29.1218 31.0887 29.1027 31.0362 29.083C30.9903 29.0655 30.9444 29.0481 30.8972 29.0301C30.7771 28.9853 30.7771 28.9853 30.656 29.0625C30.656 29.0006 30.656 28.9388 30.656 28.875C30.5965 28.8681 30.5369 28.8611 30.4755 28.854C30.1129 28.8028 29.7619 28.6988 29.4094 28.6025C29.0269 28.4992 29.0269 28.4992 28.6405 28.5625C28.6198 28.5213 28.599 28.48 28.5776 28.4375C28.3068 28.3807 28.0895 28.365 27.8217 28.4375C27.8217 28.3963 27.8217 28.355 27.8217 28.3125C27.6347 28.3331 27.4476 28.3538 27.2549 28.375C27.2341 28.3131 27.2133 28.2513 27.1919 28.1875C27.1582 28.2079 27.1245 28.2283 27.0898 28.2493C26.9036 28.3278 26.7599 28.3269 26.5581 28.3242C26.4924 28.3238 26.4268 28.3234 26.3591 28.323C26.1841 28.3125 26.1841 28.3125 25.9952 28.25C25.8533 28.2046 25.771 28.1804 25.6253 28.2178C25.4849 28.2516 25.3762 28.2522 25.2325 28.2424C25.185 28.2394 25.1375 28.2364 25.0886 28.2333C25.0396 28.2298 24.9906 28.2263 24.9402 28.2227C24.8903 28.2194 24.8403 28.2161 24.7889 28.2128C24.6661 28.2047 24.5433 28.1961 24.4206 28.1875C24.3998 28.2494 24.379 28.3113 24.3576 28.375C24.1471 28.3796 23.9921 28.3791 23.7907 28.3125C23.6426 28.3499 23.4956 28.3918 23.3498 28.4375C23.1494 28.4913 22.9915 28.5 22.783 28.5C22.6079 28.5297 22.434 28.5638 22.2597 28.5977C22.0902 28.625 22.0902 28.625 21.8382 28.625C21.8382 28.6869 21.8382 28.7488 21.8382 28.8125C21.7759 28.7919 21.7135 28.7713 21.6493 28.75C21.4967 28.7859 21.353 28.8265 21.2044 28.875C21.1377 28.8964 21.1377 28.8964 21.0695 28.9183C19.2509 29.5128 17.5273 30.3503 16.0436 31.5625C15.9819 31.6112 15.9201 31.6598 15.8564 31.71C14.8954 32.4863 13.9918 33.3716 13.2723 34.375C13.2442 34.4136 13.2161 34.4522 13.1872 34.492C11.4094 36.9453 10.3652 39.7453 10.1693 42.7648C10.0985 43.8057 10.0985 43.8057 9.81212 44.1484C9.7645 44.2072 9.7645 44.2072 9.71592 44.2671C9.52993 44.4747 9.52993 44.4747 9.43027 44.5625C9.3887 44.5625 9.34713 44.5625 9.3043 44.5625C9.28352 44.6244 9.26273 44.6862 9.24132 44.75C9.11535 44.75 8.98938 44.75 8.86341 44.75C8.84263 44.8119 8.82184 44.8737 8.80043 44.9375C8.59258 44.9375 8.38473 44.9375 8.17058 44.9375C8.17058 44.8962 8.17058 44.855 8.17058 44.8125C8.09192 44.7824 8.01317 44.7525 7.93439 44.7227C7.86863 44.6976 7.86863 44.6976 7.80153 44.6721C7.66854 44.6219 7.66854 44.6219 7.53188 44.5996C7.41477 44.5625 7.41477 44.5625 7.2888 44.3711C7.24645 44.2892 7.20447 44.2072 7.16283 44.125C7.14086 44.0885 7.11889 44.052 7.09625 44.0144C6.89566 43.666 6.87599 43.3724 6.88727 42.9766C6.88809 42.9168 6.8889 42.8571 6.88973 42.7955C6.90002 42.3149 6.94501 41.8416 7.00931 41.3655C7.03575 41.1347 7.04173 40.9191 7.03686 40.6875C7.07843 40.6875 7.12 40.6875 7.16283 40.6875C7.16665 40.6444 7.17046 40.6013 7.1744 40.5569C7.20798 40.1831 7.24569 39.8103 7.2888 39.4375C7.33037 39.4375 7.37194 39.4375 7.41477 39.4375C7.41477 39.2725 7.41477 39.1075 7.41477 38.9375C7.45634 38.9375 7.49791 38.9375 7.54074 38.9375C7.55109 38.8807 7.55109 38.8807 7.56165 38.8228C7.57164 38.7704 7.58162 38.718 7.59191 38.6641C7.60141 38.6133 7.61091 38.5625 7.6207 38.5103C7.73935 38.0003 7.91492 37.5115 8.10366 37.0234C8.13527 36.9401 8.13527 36.9401 8.16751 36.855C8.26743 36.5952 8.37203 36.3435 8.50051 36.0962C8.60422 35.8895 8.63981 35.7874 8.61147 35.5625C8.65304 35.5625 8.69461 35.5625 8.73744 35.5625C8.7631 35.5135 8.7631 35.5135 8.78926 35.4634C9.57856 33.957 10.4895 32.6039 11.6071 31.3178C11.7634 31.139 11.7634 31.139 11.8867 30.9375C11.9282 30.9375 11.9698 30.9375 12.0126 30.9375C12.0126 30.8963 12.0126 30.855 12.0126 30.8125C12.0985 30.7288 12.0985 30.7288 12.2213 30.6289C12.4433 30.4424 12.6479 30.2456 12.8511 30.0391C13.3568 29.5297 13.923 29.103 14.5047 28.6841C14.6694 28.5661 14.6694 28.5661 14.784 28.375C14.8885 28.3323 14.9936 28.2908 15.0989 28.25C15.2334 28.1621 15.365 28.0725 15.4965 27.9805C18.1451 26.1875 18.1451 26.1875 19.1929 26.1875C19.0234 26.0041 18.876 25.8661 18.6536 25.75C18.4324 25.6223 18.3393 25.5099 18.1851 25.3125C18.1228 25.2713 18.0604 25.23 17.9962 25.1875C17.8007 25.0582 17.6959 24.9346 17.5553 24.75C17.4773 24.6727 17.4773 24.6727 17.3978 24.5938C17.2479 24.445 17.1196 24.2899 16.9884 24.125C16.9582 24.0955 16.9279 24.0659 16.8968 24.0355C16.798 23.9361 16.7181 23.834 16.6361 23.7207C16.6063 23.6799 16.5765 23.639 16.5458 23.5969C16.484 23.5115 16.4221 23.426 16.3603 23.3406C16.3305 23.2997 16.3007 23.2589 16.27 23.2168C16.2432 23.1797 16.2163 23.1426 16.1887 23.1044C16.1077 22.9966 16.1077 22.9966 16.0036 22.8996C15.9177 22.8125 15.9177 22.8125 15.8904 22.7029C15.8473 22.5333 15.7636 22.4006 15.6732 22.2517C14.8415 20.878 14.1847 18.9979 14.2801 17.375C14.2385 17.3544 14.1969 17.3338 14.1541 17.3125C14.1909 16.4788 14.2314 15.6456 14.2801 14.8125C14.3216 14.8125 14.3632 14.8125 14.406 14.8125C14.4087 14.7746 14.4114 14.7367 14.4142 14.6976C14.447 14.3057 14.5192 13.9434 14.6304 13.5664C14.647 13.5099 14.6636 13.4533 14.6807 13.3951C15.0264 12.255 15.5737 11.2156 16.1696 10.1875C16.2112 10.1875 16.2528 10.1875 16.2956 10.1875C16.3101 10.1443 16.3246 10.1011 16.3396 10.0566C16.439 9.83622 16.5751 9.65714 16.7247 9.46875C16.7515 9.43403 16.7783 9.3993 16.806 9.36353C16.9789 9.14288 17.1635 8.94472 17.3663 8.75C17.407 8.70891 17.4477 8.66782 17.4896 8.62549C17.5281 8.58666 17.5667 8.54782 17.6064 8.50781C17.6445 8.4693 17.6826 8.43079 17.7218 8.39112C19.3402 6.85174 21.3489 5.82801 23.5388 5.375C23.592 5.36398 23.6453 5.35295 23.7001 5.34159C25.1232 5.06254 26.6548 5.08113 28.0737 5.375ZM24.4836 8.4375C24.4628 8.47875 24.442 8.52 24.4206 8.5625C24.3582 8.58313 24.2959 8.60375 24.2316 8.625C24.2316 8.58375 24.2316 8.5425 24.2316 8.5C24.196 8.50903 24.1603 8.51805 24.1236 8.52735C24.0543 8.54475 24.0543 8.54475 23.9836 8.5625C23.9146 8.5799 23.9146 8.5799 23.8441 8.59766C23.7278 8.625 23.7278 8.625 23.6648 8.625C23.6024 8.66625 23.5401 8.7075 23.4758 8.75C23.4135 8.71906 23.4135 8.71906 23.3498 8.6875C23.2277 8.7293 23.2277 8.7293 23.094 8.79688C22.9061 8.88448 22.7268 8.95646 22.5271 9.01172C20.8346 9.5549 19.3481 11.0512 18.5 12.5625C18.4619 12.6305 18.4237 12.6985 18.3844 12.7686C17.3038 14.8008 17.1664 17.1138 17.8359 19.2943C18.0041 19.8083 18.236 20.2785 18.5 20.75C18.5466 20.8352 18.5466 20.8352 18.594 20.9221C19.246 22.0607 20.182 22.9641 21.2714 23.6875C21.3622 23.748 21.3622 23.748 21.4549 23.8098C23.3342 24.9733 25.6446 25.2383 27.7787 24.7598C29.3082 24.3946 30.7901 23.606 31.8528 22.4375C31.8528 22.3963 31.8528 22.355 31.8528 22.3125C31.8904 22.297 31.9281 22.2816 31.9669 22.2656C32.1246 22.1762 32.198 22.0894 32.2936 21.9375C32.2936 21.8963 32.2936 21.855 32.2936 21.8125C32.356 21.7919 32.4184 21.7713 32.4826 21.75C32.6494 21.5342 32.7832 21.2958 32.9235 21.0625C32.9663 20.9927 33.0091 20.9228 33.0532 20.8508C33.3389 20.3764 33.5631 19.9002 33.7423 19.375C33.7602 19.3226 33.7782 19.2701 33.7967 19.2161C34.0632 18.3846 34.1957 17.5462 34.195 16.6758C34.195 16.6187 34.195 16.5616 34.195 16.5028C34.191 16.0342 34.1456 15.586 34.0572 15.125C34.0441 15.052 34.0441 15.052 34.0306 14.9775C33.8955 14.3653 33.713 13.7475 33.4274 13.1875C33.4059 13.1442 33.3845 13.1008 33.3624 13.0562C33.301 12.9328 33.2384 12.8101 33.1754 12.6875C33.1124 12.5625 33.0495 12.4375 32.9865 12.3125C32.9449 12.3125 32.9033 12.3125 32.8605 12.3125C32.8546 12.278 32.8487 12.2435 32.8425 12.208C32.7855 12.0235 32.6928 11.8921 32.581 11.7344C32.5421 11.6786 32.5032 11.6229 32.4632 11.5654C32.4104 11.5021 32.4104 11.5021 32.3566 11.4375C32.3151 11.4375 32.2735 11.4375 32.2307 11.4375C32.2177 11.3924 32.2047 11.3473 32.1913 11.3008C32.0633 11.0409 31.8636 10.8804 31.6008 10.75C31.5839 10.7126 31.567 10.6752 31.5496 10.6367C31.4515 10.4572 31.3272 10.3662 31.1599 10.25C31.1184 10.25 31.0768 10.25 31.034 10.25C31.034 10.2088 31.034 10.1675 31.034 10.125C30.9924 10.125 30.9508 10.125 30.908 10.125C30.863 10.0794 30.818 10.0338 30.7717 9.98682C30.572 9.79193 30.369 9.6624 30.1286 9.52344C30.0686 9.48767 30.0686 9.48767 30.0075 9.45117C29.7484 9.29902 29.4868 9.17521 29.2074 9.0625C29.148 9.03797 29.148 9.03797 29.0874 9.01294C28.9649 8.96241 28.8422 8.91277 28.7193 8.86328C28.6778 8.84624 28.6363 8.8292 28.5936 8.81165C28.4101 8.73799 28.2735 8.6875 28.0737 8.6875C27.9771 8.6588 27.8813 8.6273 27.7863 8.59375C27.588 8.52154 27.588 8.52154 27.3809 8.5C27.3809 8.54125 27.3809 8.5825 27.3809 8.625C27.3185 8.60438 27.2561 8.58375 27.1919 8.5625C27.1711 8.52125 27.1503 8.48 27.1289 8.4375C26.6911 8.35396 26.2505 8.36958 25.8062 8.375C25.6971 8.375 25.5879 8.37454 25.4788 8.37281C25.1407 8.36912 24.8167 8.3774 24.4836 8.4375Z" fill="#DCE3EB"/>
<path d="M24.9244 5.0625C25.5064 5.0625 26.0884 5.0625 26.688 5.0625C26.688 5.08312 26.688 5.10375 26.688 5.125C26.106 5.125 25.5241 5.125 24.9244 5.125C24.9244 5.10437 24.9244 5.08375 24.9244 5.0625Z" fill="#DCE3EB"/>
<path d="M14.0911 16C14.1118 16 14.1324 16 14.1536 16C14.1536 16.4331 14.1536 16.8663 14.1536 17.3125C14.133 17.3125 14.1124 17.3125 14.0911 17.3125C14.0911 16.8794 14.0911 16.4462 14.0911 16Z" fill="#DCE3EB"/>
<path d="M37.4584 16.0625C37.479 16.0625 37.4996 16.0625 37.5209 16.0625C37.5209 16.475 37.5209 16.8875 37.5209 17.3125C37.5002 17.3125 37.4796 17.3125 37.4584 17.3125C37.4584 16.9 37.4584 16.4875 37.4584 16.0625Z" fill="#DCE3EB"/>
<path d="M10.1861 42.5625C10.2067 42.5625 10.2273 42.5625 10.2486 42.5625C10.2486 42.81 10.2486 43.0575 10.2486 43.3125C10.228 43.3125 10.2073 43.3125 10.1861 43.3125C10.1861 43.065 10.1861 42.8175 10.1861 42.5625Z" fill="#DCE3EB"/>
<path d="M24.6725 28.25C24.9219 28.25 25.1713 28.25 25.4283 28.25C25.4283 28.2706 25.4283 28.2912 25.4283 28.3125C25.1789 28.3125 24.9295 28.3125 24.6725 28.3125C24.6725 28.2919 24.6725 28.2712 24.6725 28.25Z" fill="#DCE3EB"/>
<path d="M41.3634 42.5625C41.384 42.5625 41.4047 42.5625 41.4259 42.5625C41.4259 42.7894 41.4259 43.0163 41.4259 43.25C41.4053 43.25 41.3847 43.25 41.3634 43.25C41.3634 43.0231 41.3634 42.7963 41.3634 42.5625Z" fill="#DCE3EB"/>
<path d="M44.7645 42.3125C44.7852 42.3125 44.8058 42.3125 44.827 42.3125C44.827 42.5187 44.827 42.725 44.827 42.9375C44.8064 42.9375 44.7858 42.9375 44.7645 42.9375C44.7645 42.7312 44.7645 42.525 44.7645 42.3125Z" fill="#DCE3EB"/>
<path d="M6.78491 42.3125C6.80554 42.3125 6.82616 42.3125 6.84741 42.3125C6.84741 42.5187 6.84741 42.725 6.84741 42.9375C6.82679 42.9375 6.80616 42.9375 6.78491 42.9375C6.78491 42.7312 6.78491 42.525 6.78491 42.3125Z" fill="#DCE3EB"/>
<path d="M26.1212 24.8125C26.3079 24.8125 26.4946 24.8125 26.687 24.8125C26.687 24.8331 26.687 24.8537 26.687 24.875C26.5003 24.875 26.3136 24.875 26.1212 24.875C26.1212 24.8544 26.1212 24.8337 26.1212 24.8125Z" fill="#DCE3EB"/>
<path d="M24.9244 24.8125C25.1112 24.8125 25.2979 24.8125 25.4903 24.8125C25.4903 24.8331 25.4903 24.8537 25.4903 24.875C25.3036 24.875 25.1168 24.875 24.9244 24.875C24.9244 24.8544 24.9244 24.8337 24.9244 24.8125Z" fill="#DCE3EB"/>
<path d="M17.4922 16.375C17.5129 16.375 17.5335 16.375 17.5547 16.375C17.5547 16.5606 17.5547 16.7463 17.5547 16.9375C17.5341 16.9375 17.5135 16.9375 17.4922 16.9375C17.4922 16.7519 17.4922 16.5663 17.4922 16.375Z" fill="#DCE3EB"/>
<path d="M34.0572 16.4375C34.0778 16.4375 34.0984 16.4375 34.1197 16.4375C34.1197 16.6025 34.1197 16.7675 34.1197 16.9375C34.0991 16.9375 34.0784 16.9375 34.0572 16.9375C34.0572 16.7725 34.0572 16.6075 34.0572 16.4375Z" fill="#DCE3EB"/>
<path d="M44.7016 41.625C44.7222 41.625 44.7428 41.625 44.7641 41.625C44.7641 41.7694 44.7641 41.9137 44.7641 42.0625C44.7435 42.0625 44.7228 42.0625 44.7016 42.0625C44.7016 41.9181 44.7016 41.7737 44.7016 41.625Z" fill="#DCE3EB"/>
<path d="M6.8479 41.625C6.86853 41.625 6.88915 41.625 6.9104 41.625C6.9104 41.7694 6.9104 41.9137 6.9104 42.0625C6.88978 42.0625 6.86915 42.0625 6.8479 42.0625C6.8479 41.9181 6.8479 41.7737 6.8479 41.625Z" fill="#DCE3EB"/>
<path d="M41.3004 41.9375C41.321 41.9375 41.3417 41.9375 41.3629 41.9375C41.3629 42.0613 41.3629 42.185 41.3629 42.3125C41.3423 42.3125 41.3217 42.3125 41.3004 42.3125C41.3004 42.1887 41.3004 42.065 41.3004 41.9375Z" fill="#DCE3EB"/>
<path d="M10.2491 41.9375C10.2697 41.9375 10.2903 41.9375 10.3116 41.9375C10.3116 42.0613 10.3116 42.185 10.3116 42.3125C10.291 42.3125 10.2703 42.3125 10.2491 42.3125C10.2491 42.1887 10.2491 42.065 10.2491 41.9375Z" fill="#DCE3EB"/>
<path d="M33.9942 15.625C34.0148 15.625 34.0355 15.625 34.0567 15.625C34.0567 15.7488 34.0567 15.8725 34.0567 16C34.0361 16 34.0155 16 33.9942 16C33.9942 15.8762 33.9942 15.7525 33.9942 15.625Z" fill="#DCE3EB"/>
<path d="M17.5552 15.625C17.5759 15.625 17.5965 15.625 17.6177 15.625C17.6177 15.7488 17.6177 15.8725 17.6177 16C17.5971 16 17.5765 16 17.5552 16C17.5552 15.8762 17.5552 15.7525 17.5552 15.625Z" fill="#DCE3EB"/>
<path d="M37.3954 15.3125C37.416 15.3125 37.4366 15.3125 37.4579 15.3125C37.4579 15.4363 37.4579 15.56 37.4579 15.6875C37.4373 15.6875 37.4166 15.6875 37.3954 15.6875C37.3954 15.5637 37.3954 15.44 37.3954 15.3125Z" fill="#DCE3EB"/>
<path d="M14.1541 15.3125C14.1747 15.3125 14.1954 15.3125 14.2166 15.3125C14.2166 15.4363 14.2166 15.56 14.2166 15.6875C14.196 15.6875 14.1754 15.6875 14.1541 15.6875C14.1541 15.5637 14.1541 15.44 14.1541 15.3125Z" fill="#DCE3EB"/>
<path d="M37.3324 18.1875C37.353 18.1875 37.3736 18.1875 37.3949 18.1875C37.3949 18.2906 37.3949 18.3937 37.3949 18.5C37.3743 18.5 37.3536 18.5 37.3324 18.5C37.3324 18.3969 37.3324 18.2938 37.3324 18.1875Z" fill="#DCE3EB"/>
<path d="M14.2171 18.1875C14.2377 18.1875 14.2584 18.1875 14.2796 18.1875C14.2796 18.2906 14.2796 18.3937 14.2796 18.5C14.259 18.5 14.2384 18.5 14.2171 18.5C14.2171 18.3969 14.2171 18.2938 14.2171 18.1875Z" fill="#DCE3EB"/>
<path d="M37.3954 17.6875C37.416 17.6875 37.4366 17.6875 37.4579 17.6875C37.4579 17.7906 37.4579 17.8937 37.4579 18C37.4373 18 37.4166 18 37.3954 18C37.3954 17.8969 37.3954 17.7938 37.3954 17.6875Z" fill="#DCE3EB"/>
<path d="M14.1541 17.6875C14.1747 17.6875 14.1954 17.6875 14.2166 17.6875C14.2166 17.7906 14.2166 17.8937 14.2166 18C14.196 18 14.1754 18 14.1541 18C14.1541 17.8969 14.1541 17.7938 14.1541 17.6875Z" fill="#DCE3EB"/>
<path d="M33.9942 17.375C34.0148 17.375 34.0355 17.375 34.0567 17.375C34.0567 17.4781 34.0567 17.5812 34.0567 17.6875C34.0361 17.6875 34.0155 17.6875 33.9942 17.6875C33.9942 17.5844 33.9942 17.4813 33.9942 17.375Z" fill="#DCE3EB"/>
<path d="M17.5552 17.375C17.5759 17.375 17.5965 17.375 17.6177 17.375C17.6177 17.4781 17.6177 17.5812 17.6177 17.6875C17.5971 17.6875 17.5765 17.6875 17.5552 17.6875C17.5552 17.5844 17.5552 17.4813 17.5552 17.375Z" fill="#DCE3EB"/>
<path d="M26.688 8.5C26.7919 8.5 26.8958 8.5 27.0029 8.5C27.0029 8.52062 27.0029 8.54125 27.0029 8.5625C26.899 8.5625 26.7951 8.5625 26.688 8.5625C26.688 8.54187 26.688 8.52125 26.688 8.5Z" fill="#DCE3EB"/>
<path d="M24.6095 8.5C24.7134 8.5 24.8173 8.5 24.9244 8.5C24.9244 8.52062 24.9244 8.54125 24.9244 8.5625C24.8205 8.5625 24.7166 8.5625 24.6095 8.5625C24.6095 8.54187 24.6095 8.52125 24.6095 8.5Z" fill="#DCE3EB"/>
<path d="M27.0029 5.125C27.1069 5.125 27.2108 5.125 27.3179 5.125C27.3179 5.14562 27.3179 5.16625 27.3179 5.1875C27.2139 5.1875 27.11 5.1875 27.0029 5.1875C27.0029 5.16687 27.0029 5.14625 27.0029 5.125Z" fill="#DCE3EB"/>
<path d="M24.2946 5.125C24.3985 5.125 24.5025 5.125 24.6095 5.125C24.6095 5.14562 24.6095 5.16625 24.6095 5.1875C24.5056 5.1875 24.4017 5.1875 24.2946 5.1875C24.2946 5.16687 24.2946 5.14625 24.2946 5.125Z" fill="#DCE3EB"/>
<path d="M6.78491 43.375C6.84741 43.625 6.84741 43.625 6.84741 43.625L6.78491 43.375Z" fill="#DCE3EB"/>
<path d="M10.312 41.5C10.3745 41.75 10.3745 41.75 10.3745 41.75L10.312 41.5Z" fill="#DCE3EB"/>
<path d="M41.2374 41.4375C41.2999 41.6875 41.2999 41.6875 41.2999 41.6875L41.2374 41.4375Z" fill="#DCE3EB"/>
<path d="M44.6386 41.1875C44.7011 41.4375 44.7011 41.4375 44.7011 41.4375L44.6386 41.1875Z" fill="#DCE3EB"/>
<path d="M6.91089 41.1875C6.97339 41.4375 6.97339 41.4375 6.97339 41.4375L6.91089 41.1875Z" fill="#DCE3EB"/>
<path d="M41.1744 41.0625C41.2369 41.3125 41.2369 41.3125 41.2369 41.3125L41.1744 41.0625Z" fill="#DCE3EB"/>
<path d="M10.375 41.0625C10.4375 41.3125 10.4375 41.3125 10.4375 41.3125L10.375 41.0625Z" fill="#DCE3EB"/>
<path d="M44.5756 40.75C44.6381 41 44.6381 41 44.6381 41L44.5756 40.75Z" fill="#DCE3EB"/>
<path d="M6.97388 40.75C7.03638 41 7.03638 41 7.03638 41L6.97388 40.75Z" fill="#DCE3EB"/>
<path d="M44.5126 40.375C44.5751 40.625 44.5751 40.625 44.5751 40.625L44.5126 40.375Z" fill="#DCE3EB"/>
<path d="M7.03687 40.375C7.09937 40.625 7.09937 40.625 7.09937 40.625L7.03687 40.375Z" fill="#DCE3EB"/>
<path d="M28.2626 28.4375C28.5137 28.5 28.5137 28.5 28.5137 28.5L28.2626 28.4375Z" fill="#DCE3EB"/>
<path d="M23.5388 28.375C23.7898 28.4375 23.7898 28.4375 23.7898 28.4375L23.5388 28.375Z" fill="#DCE3EB"/>
<path d="M26.877 24.75C27.128 24.8125 27.128 24.8125 27.128 24.8125L26.877 24.75Z" fill="#DCE3EB"/>
<path d="M24.4835 24.75C24.7346 24.8125 24.7346 24.8125 24.7346 24.8125L24.4835 24.75Z" fill="#DCE3EB"/>
<path d="M33.9312 17.875C33.9937 18.125 33.9937 18.125 33.9937 18.125L33.9312 17.875Z" fill="#DCE3EB"/>
<path d="M17.6182 17.875C17.6807 18.125 17.6807 18.125 17.6807 18.125L17.6182 17.875Z" fill="#DCE3EB"/>
<path d="M33.9312 15.1875C33.9937 15.4375 33.9937 15.4375 33.9937 15.4375L33.9312 15.1875Z" fill="#DCE3EB"/>
<path d="M17.6182 15.1875C17.6807 15.4375 17.6807 15.4375 17.6807 15.4375L17.6182 15.1875Z" fill="#DCE3EB"/>
<path d="M37.3324 14.875C37.3949 15.125 37.3949 15.125 37.3949 15.125L37.3324 14.875Z" fill="#DCE3EB"/>
<path d="M14.2171 14.875C14.2796 15.125 14.2796 15.125 14.2796 15.125L14.2171 14.875Z" fill="#DCE3EB"/>
<path d="M37.2694 14.5C37.3319 14.75 37.3319 14.75 37.3319 14.75L37.2694 14.5Z" fill="#DCE3EB"/>
<path d="M14.2801 14.5C14.3426 14.75 14.3426 14.75 14.3426 14.75L14.2801 14.5Z" fill="#DCE3EB"/>
<path d="M23.5388 5.25C23.7898 5.3125 23.7898 5.3125 23.7898 5.3125L23.5388 5.25Z" fill="#DCE3EB"/>
<path d="M27.5068 5.1875C27.7579 5.25 27.7579 5.25 27.7579 5.25L27.5068 5.1875Z" fill="#DCE3EB"/>
<path d="M23.8537 5.1875C24.1048 5.25 24.1048 5.25 24.1048 5.25L23.8537 5.1875Z" fill="#DCE3EB"/>
<path d="M28.9554 28.5625C29.1441 28.625 29.1441 28.625 29.1441 28.625L28.9554 28.5625Z" fill="#DCE3EB"/>
<path d="M22.468 28.5625C22.6566 28.625 22.6566 28.625 22.6566 28.625L22.468 28.5625Z" fill="#DCE3EB"/>
<path d="M27.3179 24.6875C27.5065 24.75 27.5065 24.75 27.5065 24.75L27.3179 24.6875Z" fill="#DCE3EB"/>
<path d="M24.1057 24.6875C24.2943 24.75 24.2943 24.75 24.2943 24.75L24.1057 24.6875Z" fill="#DCE3EB"/>
<path d="M27.5068 8.625C27.6955 8.6875 27.6955 8.6875 27.6955 8.6875L27.5068 8.625Z" fill="#DCE3EB"/>
<path d="M23.9167 8.625C24.1053 8.6875 24.1053 8.6875 24.1053 8.6875L23.9167 8.625Z" fill="#DCE3EB"/>
<path d="M28.7035 5.4375C28.8921 5.5 28.8921 5.5 28.8921 5.5L28.7035 5.4375Z" fill="#DCE3EB"/>
<path d="M22.72 5.4375C22.9086 5.5 22.9086 5.5 22.9086 5.5L22.72 5.4375Z" fill="#DCE3EB"/>
<path d="M28.4516 5.375C28.6402 5.4375 28.6402 5.4375 28.6402 5.4375L28.4516 5.375Z" fill="#DCE3EB"/>
<path d="M22.9719 5.375C23.1606 5.4375 23.1606 5.4375 23.1606 5.4375L22.9719 5.375Z" fill="#DCE3EB"/>
<path d="M28.1996 5.3125C28.3883 5.375 28.3883 5.375 28.3883 5.375L28.1996 5.3125Z" fill="#DCE3EB"/>
<path d="M23.2239 5.3125C23.4125 5.375 23.4125 5.375 23.4125 5.375L23.2239 5.3125Z" fill="#DCE3EB"/>
<path d="M27.8847 5.25C28.0733 5.3125 28.0733 5.3125 28.0733 5.3125L27.8847 5.25Z" fill="#DCE3EB"/>
<path d="M43.4419 44.875C43.5669 44.9375 43.5669 44.9375 43.5669 44.9375L43.4419 44.875Z" fill="#DCE3EB"/>
<path d="M43.6309 44.8125C43.7559 44.875 43.7559 44.875 43.7559 44.875L43.6309 44.8125Z" fill="#DCE3EB"/>
<path d="M8.92639 44.8125C9.05139 44.875 9.05139 44.875 9.05139 44.875L8.92639 44.8125Z" fill="#DCE3EB"/>
<path d="M17.7442 30.375C17.8692 30.4375 17.8692 30.4375 17.8692 30.4375L17.7442 30.375Z" fill="#DCE3EB"/>
<path d="M32.1047 29.5625C32.2297 29.625 32.2297 29.625 32.2297 29.625L32.1047 29.5625Z" fill="#DCE3EB"/>
<path d="M19.3818 29.5625C19.5068 29.625 19.5068 29.625 19.5068 29.625L19.3818 29.5625Z" fill="#DCE3EB"/>
<path d="M31.6638 29.375C31.7888 29.4375 31.7888 29.4375 31.7888 29.4375L31.6638 29.375Z" fill="#DCE3EB"/>
<path d="M19.8227 29.375C19.9477 29.4375 19.9477 29.4375 19.9477 29.4375L19.8227 29.375Z" fill="#DCE3EB"/>
<path d="M31.3489 29.25C31.4739 29.3125 31.4739 29.3125 31.4739 29.3125L31.3489 29.25Z" fill="#DCE3EB"/>
<path d="M20.1376 29.25C20.2626 29.3125 20.2626 29.3125 20.2626 29.3125L20.1376 29.25Z" fill="#DCE3EB"/>
<path d="M31.1599 29.1875C31.2849 29.25 31.2849 29.25 31.2849 29.25L31.1599 29.1875Z" fill="#DCE3EB"/>
<path d="M20.3266 29.1875C20.4516 29.25 20.4516 29.25 20.4516 29.25L20.3266 29.1875Z" fill="#DCE3EB"/>
<path d="M30.4671 28.9375C30.5921 29 30.5921 29 30.5921 29L30.4671 28.9375Z" fill="#DCE3EB"/>
<path d="M30.2151 28.875C30.3401 28.9375 30.3401 28.9375 30.3401 28.9375L30.2151 28.875Z" fill="#DCE3EB"/>
<path d="M21.2714 28.875C21.3964 28.9375 21.3964 28.9375 21.3964 28.9375L21.2714 28.875Z" fill="#DCE3EB"/>
<path d="M30.0262 28.8125C30.1512 28.875 30.1512 28.875 30.1512 28.875L30.0262 28.8125Z" fill="#DCE3EB"/>
<path d="M21.4603 28.8125C21.5853 28.875 21.5853 28.875 21.5853 28.875L21.4603 28.8125Z" fill="#DCE3EB"/>
<path d="M29.7742 28.75C29.8992 28.8125 29.8992 28.8125 29.8992 28.8125L29.7742 28.75Z" fill="#DCE3EB"/>
<path d="M29.5223 28.6875C29.6473 28.75 29.6473 28.75 29.6473 28.75L29.5223 28.6875Z" fill="#DCE3EB"/>
<path d="M21.9642 28.6875C22.0892 28.75 22.0892 28.75 22.0892 28.75L21.9642 28.6875Z" fill="#DCE3EB"/>
<path d="M29.2704 28.625C29.3954 28.6875 29.3954 28.6875 29.3954 28.6875L29.2704 28.625Z" fill="#DCE3EB"/>
<path d="M22.2161 28.625C22.3411 28.6875 22.3411 28.6875 22.3411 28.6875L22.2161 28.625Z" fill="#DCE3EB"/>
<path d="M34.5611 27C34.6861 27.0625 34.6861 27.0625 34.6861 27.0625L34.5611 27Z" fill="#DCE3EB"/>
<path d="M16.9254 27C17.0504 27.0625 17.0504 27.0625 17.0504 27.0625L16.9254 27Z" fill="#DCE3EB"/>
<path d="M33.8052 26.625C33.9302 26.6875 33.9302 26.6875 33.9302 26.6875L33.8052 26.625Z" fill="#DCE3EB"/>
<path d="M17.6812 26.625C17.8062 26.6875 17.8062 26.6875 17.8062 26.6875L17.6812 26.625Z" fill="#DCE3EB"/>
<path d="M33.6793 26.5625C33.8043 26.625 33.8043 26.625 33.8043 26.625L33.6793 26.5625Z" fill="#DCE3EB"/>
<path d="M32.7975 26.1875C32.9225 26.25 32.9225 26.25 32.9225 26.25L32.7975 26.1875Z" fill="#DCE3EB"/>
<path d="M18.689 26.1875C18.814 26.25 18.814 26.25 18.814 26.25L18.689 26.1875Z" fill="#DCE3EB"/>
<path d="M27.6328 24.625C27.7578 24.6875 27.7578 24.6875 27.7578 24.6875L27.6328 24.625Z" fill="#DCE3EB"/>
<path d="M23.8537 24.625C23.9787 24.6875 23.9787 24.6875 23.9787 24.6875L23.8537 24.625Z" fill="#DCE3EB"/>
<path d="M27.8847 24.5625C28.0097 24.625 28.0097 24.625 28.0097 24.625L27.8847 24.5625Z" fill="#DCE3EB"/>
<path d="M23.6017 24.5625C23.7267 24.625 23.7267 24.625 23.7267 24.625L23.6017 24.5625Z" fill="#DCE3EB"/>
<path d="M28.1367 24.5C28.2617 24.5625 28.2617 24.5625 28.2617 24.5625L28.1367 24.5Z" fill="#DCE3EB"/>
<path d="M23.3499 24.5C23.4749 24.5625 23.4749 24.5625 23.4749 24.5625L23.3499 24.5Z" fill="#DCE3EB"/>
<path d="M28.3256 24.4375C28.4506 24.5 28.4506 24.5 28.4506 24.5L28.3256 24.4375Z" fill="#DCE3EB"/>
<path d="M23.1609 24.4375C23.2859 24.5 23.2859 24.5 23.2859 24.5L23.1609 24.4375Z" fill="#DCE3EB"/>
<path d="M28.5146 24.375C28.6396 24.4375 28.6396 24.4375 28.6396 24.4375L28.5146 24.375Z" fill="#DCE3EB"/>
<path d="M22.9719 24.375C23.0969 24.4375 23.0969 24.4375 23.0969 24.4375L22.9719 24.375Z" fill="#DCE3EB"/>
<path d="M28.8295 24.25C28.9545 24.3125 28.9545 24.3125 28.9545 24.3125L28.8295 24.25Z" fill="#DCE3EB"/>
<path d="M22.657 24.25C22.782 24.3125 22.782 24.3125 22.782 24.3125L22.657 24.25Z" fill="#DCE3EB"/>
<path d="M29.1444 24.125C29.2694 24.1875 29.2694 24.1875 29.2694 24.1875L29.1444 24.125Z" fill="#DCE3EB"/>
<path d="M22.3421 24.125C22.4671 24.1875 22.4671 24.1875 22.4671 24.1875L22.3421 24.125Z" fill="#DCE3EB"/>
<path d="M29.2704 24.0625C29.3954 24.125 29.3954 24.125 29.3954 24.125L29.2704 24.0625Z" fill="#DCE3EB"/>
<path d="M22.2161 24.0625C22.3411 24.125 22.3411 24.125 22.3411 24.125L22.2161 24.0625Z" fill="#DCE3EB"/>
<path d="M22.4051 9.125C22.5301 9.1875 22.5301 9.1875 22.5301 9.1875L22.4051 9.125Z" fill="#DCE3EB"/>
<path d="M28.4516 8.875C28.5766 8.9375 28.5766 8.9375 28.5766 8.9375L28.4516 8.875Z" fill="#DCE3EB"/>
<path d="M23.0349 8.875C23.1599 8.9375 23.1599 8.9375 23.1599 8.9375L23.0349 8.875Z" fill="#DCE3EB"/>
<path d="M28.2626 8.8125C28.3876 8.875 28.3876 8.875 28.3876 8.875L28.2626 8.8125Z" fill="#DCE3EB"/>
<path d="M23.2239 8.8125C23.3489 8.875 23.3489 8.875 23.3489 8.875L23.2239 8.8125Z" fill="#DCE3EB"/>
<path d="M27.8217 8.6875C27.9467 8.75 27.9467 8.75 27.9467 8.75L27.8217 8.6875Z" fill="#DCE3EB"/>
<path d="M30.908 6.25C31.033 6.3125 31.033 6.3125 31.033 6.3125L30.908 6.25Z" fill="#DCE3EB"/>
<path d="M30.2151 5.9375C30.3401 6 30.3401 6 30.3401 6L30.2151 5.9375Z" fill="#DCE3EB"/>
<path d="M21.2714 5.9375C21.3964 6 21.3964 6 21.3964 6L21.2714 5.9375Z" fill="#DCE3EB"/>
<path d="M29.9002 5.8125C30.0252 5.875 30.0252 5.875 30.0252 5.875L29.9002 5.8125Z" fill="#DCE3EB"/>
<path d="M21.5862 5.8125C21.7112 5.875 21.7112 5.875 21.7112 5.875L21.5862 5.8125Z" fill="#DCE3EB"/>
<path d="M29.1444 5.5625C29.2694 5.625 29.2694 5.625 29.2694 5.625L29.1444 5.5625Z" fill="#DCE3EB"/>
<path d="M22.3421 5.5625C22.4671 5.625 22.4671 5.625 22.4671 5.625L22.3421 5.5625Z" fill="#DCE3EB"/>
<path d="M28.9554 5.5C29.0804 5.5625 29.0804 5.5625 29.0804 5.5625L28.9554 5.5Z" fill="#DCE3EB"/>
<path d="M22.531 5.5C22.656 5.5625 22.656 5.5625 22.656 5.5625L22.531 5.5Z" fill="#DCE3EB"/>
</svg>
